# xmcd
#
# Track frame offsets: 
#        182
#        31910
#        59890
#        81390
#        101765
#        132840
#        170787
#        183500
#        203810
#        219652
#
# Disc length: 3169 seconds
#
# Revision: 11
# Processed by: cddbd v1.5.2PL0 Copyright (c) Steve Scherf et al.
# Submitted via: ExactAudioCopy v0.99pb5
#
DISCID=9a0c5f0a
DTITLE=Rory Gallagher - Blueprint
DYEAR=1973
DGENRE=Blues
TTITLE0=Walk On Hot Coals
TTITLE1=Daughter Of The Everglades
TTITLE2=Banker's Blues
TTITLE3=Hands Off
TTITLE4=Race The Breeze
TTITLE5=Seventh Son Of A Seventh Son
TTITLE6=Unmilitary Two-Step
TTITLE7=If I Had A Reason
TTITLE8=Stompin' Ground (Alt. Version)
TTITLE9=Treat Her Right
EXTD=Remastered and Bonus Tracks, 2000\nRCA/CAPO 104 YEAR: 1973
EXTT0=
EXTT1=
EXTT2=
EXTT3=
EXTT4=
EXTT5=
EXTT6=
EXTT7=
EXTT8=
EXTT9=
PLAYORDER=
